<svg width="72" height="72" viewBox="0 0 72 72" fill="none" xmlns="http://www.w3.org/2000/svg">
<rect width="72" height="72" rx="8" fill="#6345D5"/>
<path fill-rule="evenodd" clip-rule="evenodd" d="M28.2173 19.334H43.7823C49.4506 19.334 52.6507 22.549 52.6673 28.2173V43.784C52.6673 49.4507 49.4506 52.6673 43.7823 52.6673H28.2173C22.549 52.6673 19.334 49.4507 19.334 43.784V28.2173C19.334 22.549 22.549 19.334 28.2173 19.334ZM36.0823 45.7673C36.8006 45.7673 37.399 45.234 37.4657 44.5173V27.534C37.5323 27.0173 37.284 26.499 36.834 26.2173C36.3657 25.934 35.799 25.934 35.3507 26.2173C34.899 26.499 34.6507 27.0173 34.699 27.534V44.5173C34.784 45.234 35.3823 45.7673 36.0823 45.7673ZM43.7507 45.7673C44.4507 45.7673 45.049 45.234 45.134 44.5173V39.0507C45.1823 38.5157 44.934 38.0173 44.4823 37.734C44.034 37.4507 43.4673 37.4507 43.0007 37.734C42.549 38.0173 42.3007 38.5157 42.3673 39.0507V44.5173C42.434 45.234 43.0323 45.7673 43.7507 45.7673ZM29.699 44.5173C29.6323 45.234 29.034 45.7673 28.3157 45.7673C27.599 45.7673 26.999 45.234 26.934 44.5173V33.0007C26.884 32.4823 27.1323 31.9673 27.584 31.684C28.0323 31.4007 28.6007 31.4007 29.0507 31.684C29.499 31.9673 29.7507 32.4823 29.699 33.0007V44.5173Z" fill="white"/>
</svg>
